<svg xmlns="http://www.w3.org/2000/svg" viewBox="0 0 184.53 185.12"><defs><style>.cls-1{fill:#f2f2f3;}.cls-2{fill:#99b6ae;}</style></defs><title>urbanFutures_white_icon</title><g id="Layer_2" data-name="Layer 2"><g id="whiteLogos"><g id="urbanFutures_logo"><path class="cls-1" d="M175.71,132.28l-10.38-4.91a80.13,80.13,0,0,0,7.72-34.51V11.48H126.87v8h0V92c0,.27,0,.55,0,.83a34.72,34.72,0,0,1-17.3,30l-5.75-9.94a23.18,23.18,0,0,0,11.57-20c0-.15,0-.3,0-.45l0-.44V2.78l0,0V0h69.15V92.86A91.5,91.5,0,0,1,175.71,132.28Z"/><path class="cls-1" d="M92.26,185.12A92.36,92.36,0,0,1,0,92.86c0-.57,0-1.13,0-1.7V0H69.17V2h0V52H57.69V18.62h0V11.48H11.5V91.32c0,.51,0,1,0,1.54a80.86,80.86,0,0,0,97,79.16l2.28,11.26A93.36,93.36,0,0,1,92.26,185.12Z"/><rect class="cls-2" x="57.63" y="63.41" width="11.54" height="11.54"/><rect class="cls-2" x="57.63" y="86.13" width="11.54" height="11.54"/><rect class="cls-2" x="86.53" y="115.92" width="11.54" height="11.54"/><rect class="cls-2" x="120.17" y="166.82" width="11.54" height="11.54" transform="translate(-53.78 57.06) rotate(-21.15)"/><rect class="cls-2" x="155.12" y="138.3" width="11.54" height="11.54" transform="translate(-52.03 180.24) rotate(-51.49)"/><rect class="cls-2" x="139.6" y="154.76" width="11.54" height="11.54" transform="translate(-69.22 131.33) rotate(-40.09)"/><rect class="cls-2" x="66.44" y="106.47" width="11.54" height="11.54" transform="translate(100.52 -18.19) rotate(45)"/></g></g></g></svg>