<?xml version="1.0" encoding="utf-8"?>
<!-- Generator: Adobe Illustrator 23.1.0, SVG Export Plug-In . SVG Version: 6.00 Build 0)  -->
<svg version="1.1" id="Layer_1" xmlns="http://www.w3.org/2000/svg" xmlns:xlink="http://www.w3.org/1999/xlink" x="0px" y="0px"
	 viewBox="0 0 471.3 471.3" style="enable-background:new 0 0 471.3 471.3;" xml:space="preserve">
<style type="text/css">
	.st0{fill:#666A72;}
	.st1{enable-background:new    ;}
	.st2{fill:#262626;}
</style>
<g>
	<rect id="XMLID_6_" y="0" class="st0" width="471.3" height="471.3"/>
	<g id="XMLID_4_">
		<g class="st1">
			<path class="st2" d="M216.9,128.4h1c5.4,0,9.2,0.7,11.4,2.2c10.4,5.1,15.5,10.1,15.5,15v1.2c0,4.8-6,20.5-17.9,47.1
				c-9.6,21.1-17.8,40.8-24.6,58.9c-1.2,3.5-2.6,7.5-4.1,12h0.3c6.9-2.9,13.9-7.5,20.9-13.9c6.3-6.3,10.4-11.1,12.1-14.2
				c5.3-7.7,10.3-16.1,14.8-25.3c2.6-4.5,4.7-6.8,6.4-6.8h0.3c1,0,1.5,0.9,1.5,2.8c0,4.6-4,14.9-12.1,30.8
				c-3.6,6.4-8.2,13.2-14.1,20.4c-6.1,6.8-11.1,11.7-14.8,14.5c-7.5,5.7-14,9.9-19.5,12.6c-1.4,0.3-2.1,1-2.1,2.1
				c-3.8,13.6-7.7,23.9-11.7,31c-2.1,4-5.4,8.4-10.1,13.3l-5.9,5c-11.8,8.1-23.8,12.2-35.8,12.2c-11.5,0-20.9-4-28.4-11.8
				c-4.7-5.6-7.1-11.6-7.1-18.1v-2.2c0-6.6,2.5-13.2,7.6-19.7c3.7-3.9,6.9-6.7,9.8-8.3c4.1-2.5,9.5-4.7,16.1-6.8
				c6.8-1.9,16.7-3.7,29.8-5.5c2.7-0.6,4.2-1,4.7-1.2c15.2-46.5,29.8-86.2,43.8-119.2c-5.2,2.9-11.2,7.3-17.8,13.2
				c-18.4,16.5-27.5,35.9-27.5,58.3c0,3.3,0.4,8.1,1.3,14.7v0.1c0,2-0.7,3.3-2.1,3.9c-0.3,0.2-0.6,0.3-1,0.3h-0.7
				c-4.1,0-9.6-3.7-16.3-11c-6.9-8.4-10.4-17-10.4-25.8c0-8.5,3.5-19,10.4-31.5c3-5.3,8.1-12.1,15.5-20.3c7.9-7.7,14.2-13,19-15.8
				C189.7,133.1,203.7,128.4,216.9,128.4z M116.5,318.5c0,3.8,2.4,6.6,7.3,8.1c1.4,0.1,2.4,0.1,3,0.1c7.9,0,15.3-6.1,22.1-18.2
				c1.7-3.8,3-6.9,4-9.5h-0.1c-12.5,3.5-21.7,6.4-27.4,8.9C119.4,311.1,116.5,314.6,116.5,318.5z"/>
			<path class="st2" d="M318.4,126.6h2.2c14.1,0,25.4,5.9,33.9,17.6c4.1,6.8,6.2,13.3,6.2,19.4c0,17.9-6.3,35.2-18.8,52.1
				c-5.1,6.1-8.8,9.7-11,10.7c-3.5,1.7-7.1,2.5-10.8,2.5c-7.7,0-14.7-2.5-20.9-7.6c-1.2-1.5-1.8-2.8-1.8-3.8c0-1.1,2.6-4,7.7-8.7
				c9.7-9.7,15.8-16.4,18.5-20.3c7.6-10.6,11.9-19.7,12.9-27.4c0.2-0.7,0.3-1.6,0.3-2.7v-0.1c0-2.5-1.3-3.7-4-3.7
				c-12,0-25.7,10.3-40.9,31c-4.7,6.5-9.1,13.3-13,20.4c-6.2,11-11.9,23.7-17.2,38.4c-5.4,16.3-8.1,29.8-8.1,40.6v2.5
				c0,12.9,4.2,21.2,12.7,24.7c2.5,0.8,4.9,1.2,7.4,1.2c19,0,41.5-16.6,67.5-49.8c11.1-14.8,19.3-27.2,24.6-37.3
				c3.1-5.8,5.5-10,7.4-12.6c1.6-1.6,2.7-2.4,3.4-2.4h0.3c1,0,1.5,0.8,1.5,2.5v0.7c0,4.5-5.4,17.7-16.1,39.4
				c-7.4,14.6-17.2,30-29.5,46.1c-3.7,4.9-9.4,11.3-17.2,19.1c-18.2,17.3-35.4,25.9-51.8,25.9H262c-17.9,0-31-9.2-39.4-27.5
				c-4.7-11.5-7.1-24.3-7.1-38.5c0-24.3,7.3-51.4,21.8-81.3c5.5-11.1,13.1-22.8,22.7-35.1c8.2-9.7,15.6-16.9,22.2-21.8
				C295.2,131.3,307.2,126.6,318.4,126.6z"/>
		</g>
	</g>
</g>
</svg>
