<svg xmlns="http://www.w3.org/2000/svg" viewBox="0 0 656.78 407.81"><defs><style>.cls-1,.cls-4{fill:#f2f2f3;}.cls-2{fill:#99b6ae;}.cls-3{fill:#98b6ad;}.cls-4{font-size:35px;font-family:Roboto-Light, Roboto;font-weight:300;letter-spacing:0.35em;}.cls-5{letter-spacing:0.34em;}</style></defs><title>urbanFutures_intrainter_white_logo</title><g id="Layer_2" data-name="Layer 2"><g id="whiteLogos"><g id="urbanFutures_logo"><path class="cls-1" d="M4.14,235.48H17.68v54.86a23.24,23.24,0,0,0,2,10,17.49,17.49,0,0,0,5.62,6.84,24.8,24.8,0,0,0,8.75,3.9,47.43,47.43,0,0,0,11.36,1.26,47.57,47.57,0,0,0,11.37-1.26,24.83,24.83,0,0,0,8.74-3.9,17.49,17.49,0,0,0,5.62-6.84,23.24,23.24,0,0,0,2-10V235.48H86.64v53.3q0,34.58-41.25,34.58T4.14,288.78Z"/><path class="cls-1" d="M143.47,235.48h56.45a29.34,29.34,0,0,1,11.62,2,22,22,0,0,1,7.66,5.28,20.36,20.36,0,0,1,4.28,7.33,26.11,26.11,0,0,1,1.34,8.16A22.79,22.79,0,0,1,221,271.68q-3.84,5.46-11.5,7.74v.24a13.22,13.22,0,0,1,9.52,5.76,23.84,23.84,0,0,1,3.77,12.49q.25,6,.51,9.9a51.84,51.84,0,0,0,.76,6.48,19.43,19.43,0,0,0,1.22,4.14,9.35,9.35,0,0,0,1.85,2.76h-14.3a6.15,6.15,0,0,1-1.22-2.1,18.77,18.77,0,0,1-.76-3.12,35.77,35.77,0,0,1-.45-4.56c-.09-1.8-.21-4-.39-6.54a41.16,41.16,0,0,0-1.59-9.6,16.12,16.12,0,0,0-3.38-6.19,11.87,11.87,0,0,0-5.3-3.3,25.2,25.2,0,0,0-7.35-1H157v36.37H143.47Zm51.34,38.3a22.51,22.51,0,0,0,8.17-1.26,13.57,13.57,0,0,0,5.05-3.25,10.88,10.88,0,0,0,2.55-4.38,16.55,16.55,0,0,0,.7-4.68,13.06,13.06,0,0,0-4-9.9q-4-3.78-12.13-3.79H157v27.26Z"/><path class="cls-1" d="M276.8,235.48h50.7q14.55,0,21.32,5.7T355.59,257a21.07,21.07,0,0,1-1,6.9,16.32,16.32,0,0,1-2.81,5.1,17.44,17.44,0,0,1-4.21,3.67,25.93,25.93,0,0,1-5.24,2.46v.24q8.06,1.68,12.65,6.72t4.59,14.41a24.66,24.66,0,0,1-1.72,9,22.22,22.22,0,0,1-5.3,7.92,27.2,27.2,0,0,1-9,5.64,34.66,34.66,0,0,1-12.84,2.16H276.8Zm50.44,35.42q7.67,0,11.24-3.43a11.39,11.39,0,0,0,3.58-8.58q0-5.88-3.58-9.12c-2.38-2.16-6.39-3.25-12-3.25H290.33V270.9ZM327,310.15a29.35,29.35,0,0,0,9.32-1.26,16,16,0,0,0,5.87-3.3,10.81,10.81,0,0,0,3-4.62,17.16,17.16,0,0,0,.84-5.35,15.32,15.32,0,0,0-.84-5,10.37,10.37,0,0,0-2.93-4.38,16,16,0,0,0-5.56-3.12,26.28,26.28,0,0,0-8.55-1.2H290.33v28.21Z"/><path class="cls-1" d="M473.6,296.22H428.9l-11.63,25H402.72L444,235.48h15.45l41.25,85.71H485.22Zm-22.48-49L434,285.18h34.6Z"/><path class="cls-1" d="M561.2,253h-.26v68.18H547.41V235.48h15.71l58.61,68.19H622V235.48h13.54v85.71H619.82Z"/><path class="cls-1" d="M402.84,132.28l-10.38-4.91a80.12,80.12,0,0,0,7.71-34.51V11.48H354v8h0V92c0,.27,0,.55,0,.83a34.72,34.72,0,0,1-17.3,30l-5.75-9.94a23.2,23.2,0,0,0,11.57-20c0-.15,0-.3,0-.45V2.78l0,0V0h69.15V92.86A91.5,91.5,0,0,1,402.84,132.28Z"/><path class="cls-1" d="M319.39,185.12a92.36,92.36,0,0,1-92.26-92.26c0-.57,0-1.13,0-1.7V0h69.14V2h0V52H284.82V18.62h0V11.48H238.63V91.32c0,.51,0,1,0,1.54a80.86,80.86,0,0,0,97,79.16l2.28,11.26A93.43,93.43,0,0,1,319.39,185.12Z"/><rect class="cls-2" x="284.76" y="63.41" width="11.54" height="11.54"/><rect class="cls-2" x="284.76" y="86.13" width="11.54" height="11.54"/><rect class="cls-2" x="313.66" y="115.92" width="11.54" height="11.54"/><rect class="cls-2" x="347.3" y="166.82" width="11.54" height="11.54" transform="translate(-38.49 139.01) rotate(-21.15)"/><rect class="cls-2" x="382.25" y="138.3" width="11.54" height="11.54" transform="translate(33.66 357.96) rotate(-51.49)"/><rect class="cls-2" x="366.73" y="154.76" width="11.54" height="11.54" transform="translate(-15.85 277.59) rotate(-40.09)"/><rect class="cls-2" x="293.57" y="106.47" width="11.54" height="11.54" transform="translate(167.04 -178.79) rotate(45)"/><path class="cls-3" d="M4,351.25H46v4.5H10.3v20H42v4.5H10.3v26.38H4Z"/><path class="cls-3" d="M92.8,351.25h6.3v34.29a22.77,22.77,0,0,0,1.3,8.19,13.39,13.39,0,0,0,3.8,5.51,15.54,15.54,0,0,0,6.12,3.1,31.3,31.3,0,0,0,8.15,1,32,32,0,0,0,8.21-1,15.5,15.5,0,0,0,6.16-3.1,13.49,13.49,0,0,0,3.8-5.51,23,23,0,0,0,1.3-8.19V351.25h6.3v35.46a22.88,22.88,0,0,1-1.44,8.1,17.18,17.18,0,0,1-4.54,6.71,22.4,22.4,0,0,1-8,4.58,35.82,35.82,0,0,1-11.82,1.71,35.48,35.48,0,0,1-11.72-1.71,22.31,22.31,0,0,1-8-4.58,17.2,17.2,0,0,1-4.55-6.71,22.87,22.87,0,0,1-1.43-8.1Z"/><path class="cls-3" d="M189.47,351.25h52.47v4.5H218.86v50.9h-6.31v-50.9H189.47Z"/><path class="cls-3" d="M287.17,351.25h6.3v34.29a22.77,22.77,0,0,0,1.3,8.19,13.49,13.49,0,0,0,3.8,5.51,15.54,15.54,0,0,0,6.12,3.1,31.38,31.38,0,0,0,8.16,1,31.92,31.92,0,0,0,8.2-1,15.5,15.5,0,0,0,6.16-3.1,13.39,13.39,0,0,0,3.8-5.51,22.77,22.77,0,0,0,1.3-8.19V351.25h6.3v35.46a23.1,23.1,0,0,1-1.43,8.1,17.39,17.39,0,0,1-4.54,6.71,22.44,22.44,0,0,1-8,4.58,41.36,41.36,0,0,1-23.54,0,22.4,22.4,0,0,1-8-4.58,17.18,17.18,0,0,1-4.54-6.71,22.88,22.88,0,0,1-1.44-8.1Z"/><path class="cls-3" d="M391,351.25h30.31a33.94,33.94,0,0,1,7.74.85,20.51,20.51,0,0,1,6.4,2.6,13.4,13.4,0,0,1,4.36,4.5,12.57,12.57,0,0,1,1.62,6.48,13.81,13.81,0,0,1-3.25,9.16q-3.24,3.87-9.64,5V380a16.72,16.72,0,0,1,5.38,1.43,10.38,10.38,0,0,1,3.48,2.68,10.2,10.2,0,0,1,1.94,3.76,23.18,23.18,0,0,1,.79,4.62c.06.93.12,2.07.19,3.41s.18,2.7.37,4.07a20.19,20.19,0,0,0,.88,3.88,7,7,0,0,0,1.62,2.84h-6.95a6,6,0,0,1-.88-1.91,17,17,0,0,1-.51-2.32,19.38,19.38,0,0,1-.23-2.37c0-.78-.08-1.45-.14-2q-.19-2.86-.61-5.82a13.89,13.89,0,0,0-1.76-5.23,9.83,9.83,0,0,0-3.89-3.69,13.7,13.7,0,0,0-7-1.24H397.29v24.6H391Zm6.31,26.3h23.54a19.64,19.64,0,0,0,5.47-.74,14.52,14.52,0,0,0,4.54-2.13,11.07,11.07,0,0,0,3.11-3.37,8.86,8.86,0,0,0,1.15-4.54,9.91,9.91,0,0,0-3.56-8.07q-3.57-3-10.71-2.95H397.29Z"/><path class="cls-3" d="M492.48,351.25h45.7v4.5h-39.4v20h36.89v4.5H498.78v21.88h39.86v4.5H492.48Z"/><path class="cls-3" d="M590.08,388.41a13.44,13.44,0,0,0,1.58,7.14,12.45,12.45,0,0,0,4.59,4.58,21,21,0,0,0,6.9,2.44,47,47,0,0,0,8.53.74,28.82,28.82,0,0,0,5.65-.62,21.61,21.61,0,0,0,5.7-2,13.76,13.76,0,0,0,4.41-3.49,7.85,7.85,0,0,0,1.76-5.16,6.69,6.69,0,0,0-1.25-4,10.79,10.79,0,0,0-3.25-2.87,21.39,21.39,0,0,0-4.4-1.9c-1.61-.49-3.18-.89-4.73-1.2l-14.74-3a45.78,45.78,0,0,1-5.65-1.55,16.73,16.73,0,0,1-4.73-2.48,12.15,12.15,0,0,1-3.29-3.8,11.25,11.25,0,0,1-1.25-5.51,14.94,14.94,0,0,1,.93-4.73,12.76,12.76,0,0,1,3.47-5.12,20.76,20.76,0,0,1,7-4.08,33,33,0,0,1,11.4-1.67,39.62,39.62,0,0,1,9.37,1.09,25.83,25.83,0,0,1,7.83,3.26,16.71,16.71,0,0,1,5.33,5.39,14.19,14.19,0,0,1,1.94,7.49h-6.3a11.5,11.5,0,0,0-1.67-5.55,12.65,12.65,0,0,0-4-4,19.49,19.49,0,0,0-5.7-2.4,27.31,27.31,0,0,0-6.72-.82,32.75,32.75,0,0,0-6.26.59,17.22,17.22,0,0,0-5.28,1.86,10.53,10.53,0,0,0-3.67,3.37,9.27,9.27,0,0,0-1.39,5.2,6.68,6.68,0,0,0,3,5.78,13.73,13.73,0,0,0,3.2,1.63,24.63,24.63,0,0,0,3.85,1.05l16.12,3.34a51.54,51.54,0,0,1,6.63,1.9,23.21,23.21,0,0,1,5.47,2.79,12.3,12.3,0,0,1,3.71,4.07A11.86,11.86,0,0,1,635.5,392a18.27,18.27,0,0,1-.23,2.48,11.27,11.27,0,0,1-1.11,3.3,16.16,16.16,0,0,1-2.51,3.53,15.78,15.78,0,0,1-4.44,3.26,28.18,28.18,0,0,1-7,2.37,48.9,48.9,0,0,1-10,.89,49.44,49.44,0,0,1-10.85-1.13,24.81,24.81,0,0,1-8.53-3.49,16.07,16.07,0,0,1-5.42-6.05,16.66,16.66,0,0,1-1.62-8.73Z"/><text class="cls-4" transform="translate(0 185.12) scale(1.5 0.85)">I<tspan class="cls-5" x="21.56" y="0">N</tspan><tspan x="58.17" y="0">TRA</tspan></text><text class="cls-4" transform="translate(419.86 185.12) scale(1.5 0.85)">I<tspan class="cls-5" x="21.56" y="0">N</tspan><tspan x="58.17" y="0">TER</tspan></text></g></g></g></svg>